<svg width="64" height="64" viewBox="0 0 64 64" fill="none" xmlns="http://www.w3.org/2000/svg">
<path d="M52.4844 9.02275C52.7422 9.26233 52.9965 9.50534 53.2501 9.74931C53.3676 9.86176 53.3676 9.86176 53.4876 9.97649C54.6356 11.0804 55.6915 12.208 56.6251 13.4993C56.6809 13.5759 56.7367 13.6525 56.7942 13.7314C61.5693 20.3346 63.6658 28.5439 62.443 36.6265C61.4052 43.0664 58.5123 48.8132 54.0001 53.4993C53.9373 53.5648 53.8746 53.6302 53.81 53.6977C51.8847 55.6973 49.6391 57.3825 47.2229 58.7482C47.0064 58.8707 46.7915 58.996 46.5767 59.1214C39.7463 63.0151 31.1824 63.7043 23.6724 61.6551C20.3656 60.7046 17.1766 59.2608 14.3751 57.2493C14.2541 57.1625 14.133 57.0756 14.0084 56.9861C11.5932 55.2116 9.28453 53.1396 7.52234 50.7021C7.3738 50.4976 7.22129 50.2965 7.06794 50.0955C3.83799 45.798 2.00579 40.554 1.37507 35.2493C1.35863 35.1169 1.34219 34.9844 1.32526 34.8479C0.506645 26.5954 3.28097 18.4854 8.47663 12.1243C9.89968 10.4414 11.4891 8.82443 13.28 7.53343C13.5166 7.36235 13.7497 7.18701 13.983 7.01152C24.1689 -0.533722 38.7382 -0.627223 52.4844 9.02275ZM20.5001 6.49931C20.3477 6.56762 20.3477 6.56762 20.1923 6.63731C17.9538 7.65975 15.8449 8.99101 14.0001 10.6243C13.9032 10.7076 13.8064 10.7909 13.7066 10.8768C12.1527 12.2387 10.707 13.6945 9.50007 15.3743C9.44069 15.4565 9.38131 15.5387 9.32013 15.6235C5.04609 21.6122 3.2054 29.0916 4.32038 36.3821C4.74629 38.8376 5.47979 41.2272 6.50007 43.4993C6.56838 43.6516 6.56838 43.6516 6.63807 43.8071C7.6605 46.0456 8.99177 48.1545 10.6251 49.9993C10.75 50.1446 10.75 50.1446 10.8775 50.2928C12.2394 51.8467 13.6953 53.2924 15.3751 54.4993C15.4573 54.5587 15.5395 54.6181 15.6242 54.6792C21.7456 59.0479 29.2592 60.7841 36.6774 59.5975C41.258 58.8058 45.6113 56.8985 49.2501 53.9993C49.4354 53.8524 49.4354 53.8524 49.6246 53.7024C51.5818 52.1163 53.296 50.304 54.7501 48.2493C54.8047 48.1739 54.8594 48.0985 54.9157 48.0209C59.0027 42.3629 60.7201 34.9699 59.7344 28.0696C59.6677 27.6684 59.5866 27.2717 59.5001 26.8743C59.4746 26.752 59.4491 26.6296 59.4228 26.5035C58.634 22.776 57.216 19.2421 55.0001 16.1243C54.9066 15.9919 54.8132 15.8594 54.7169 15.7229C53.0885 13.4913 51.1908 11.4262 48.9646 9.78276C48.7519 9.62563 48.5413 9.4659 48.3306 9.30595C47.2014 8.46125 46.0006 7.77297 44.7501 7.12431C44.6565 7.07547 44.5629 7.02663 44.4664 6.9763C37.0388 3.14926 28.0839 3.09378 20.5001 6.49931Z" fill="#3C096C"/>
<path d="M29.9671 22.5707C30.1278 22.57 30.2884 22.5694 30.454 22.5687C30.792 22.5676 31.1301 22.5679 31.4681 22.5691C31.8966 22.5705 32.325 22.568 32.7535 22.5644C33.1684 22.5615 33.5834 22.5624 33.9983 22.5628C34.2254 22.5607 34.2254 22.5607 34.457 22.5586C36.7216 22.5768 38.2843 23.4128 39.8484 24.9735C41.1338 26.3679 41.4329 28.1358 41.4285 29.9676C41.4292 30.1283 41.4298 30.289 41.4305 30.4545C41.4316 30.7926 41.4313 31.1306 41.4301 31.4687C41.4286 31.8972 41.4312 32.3255 41.4348 32.754C41.4377 33.169 41.4368 33.5839 41.4363 33.9989C41.4377 34.1502 41.4391 34.3016 41.4406 34.4575C41.4252 36.3702 40.7962 38.0828 39.4759 39.4764C38.2104 40.6817 36.6412 41.3797 34.8879 41.397C34.6744 41.3994 34.6744 41.3994 34.4566 41.4018C34.3042 41.4028 34.1519 41.4037 33.9949 41.4046C33.8361 41.4057 33.6774 41.4067 33.5138 41.4077C33.1779 41.4094 32.842 41.4108 32.5061 41.4118C32.0802 41.4131 31.6545 41.4174 31.2287 41.4224C30.8174 41.4265 30.4062 41.427 29.9949 41.4281C29.8443 41.4303 29.6938 41.4325 29.5386 41.4347C27.6374 41.4299 25.8815 40.8027 24.5149 39.4608C23.9733 38.8906 23.5638 38.3446 23.2493 37.6249C23.1785 37.4636 23.1785 37.4636 23.1062 37.2992C22.7835 36.527 22.6103 35.8577 22.6022 35.0162C22.6006 34.8714 22.599 34.7265 22.5973 34.5772C22.5964 34.4215 22.5955 34.2658 22.5945 34.1053C22.5935 33.9436 22.5925 33.7819 22.5915 33.6152C22.5896 33.2727 22.5884 32.9302 22.5874 32.5876C22.586 32.1532 22.5817 31.7189 22.5768 31.2846C22.5727 30.8655 22.5721 30.4463 22.5711 30.0272C22.5689 29.8735 22.5667 29.7198 22.5645 29.5614C22.5701 27.2871 23.406 25.7211 24.9729 24.1507C26.3673 22.8654 28.1352 22.5662 29.9671 22.5707ZM26.2005 26.8753C25.5908 27.6316 25.3619 28.5431 25.3542 29.4997C25.353 29.6208 25.3518 29.7418 25.3505 29.8665C25.35 29.9961 25.3495 30.1256 25.3489 30.2591C25.3482 30.394 25.3475 30.5289 25.3468 30.6679C25.3456 30.9531 25.3448 31.2384 25.3443 31.5236C25.3431 31.9571 25.3392 32.3904 25.3352 32.8238C25.3344 33.1017 25.3338 33.3797 25.3333 33.6576C25.3317 33.7859 25.3302 33.9142 25.3286 34.0464C25.3329 35.4632 25.6837 36.5249 26.6477 37.578C27.433 38.3413 28.4204 38.6363 29.4992 38.645C29.6202 38.6462 29.7413 38.6474 29.866 38.6486C29.9955 38.6492 30.1251 38.6497 30.2586 38.6503C30.4609 38.6513 30.4609 38.6513 30.6673 38.6524C30.9526 38.6536 31.2378 38.6544 31.5231 38.6549C31.9565 38.6561 32.3899 38.66 32.8233 38.6639C33.1012 38.6647 33.3791 38.6654 33.657 38.6659C33.8495 38.6682 33.8495 38.6682 34.0458 38.6706C35.4627 38.6662 36.5243 38.3155 37.5774 37.3514C38.3408 36.5661 38.6358 35.5788 38.6444 34.5C38.6457 34.379 38.6469 34.2579 38.6481 34.1332C38.6486 34.0036 38.6492 33.8741 38.6497 33.7406C38.6504 33.6057 38.6511 33.4708 38.6519 33.3319C38.653 33.0466 38.6539 32.7613 38.6543 32.4761C38.6555 32.0427 38.6594 31.6093 38.6634 31.1759C38.6642 30.898 38.6648 30.6201 38.6653 30.3421C38.6676 30.1497 38.6676 30.1497 38.67 29.9534C38.6657 28.5365 38.3149 27.4749 37.3509 26.4217C36.5656 25.6584 35.5782 25.3634 34.4995 25.3547C34.3179 25.3529 34.3179 25.3529 34.1326 25.3511C34.0031 25.3505 33.8735 25.35 33.74 25.3495C33.5377 25.3484 33.5377 25.3484 33.3313 25.3473C33.0461 25.3461 32.7608 25.3453 32.4755 25.3448C32.0421 25.3436 31.6087 25.3397 31.1753 25.3358C30.8974 25.335 30.6195 25.3343 30.3416 25.3338C30.2133 25.3323 30.085 25.3308 29.9528 25.3292C28.4194 25.3338 27.2773 25.7676 26.2005 26.8753Z" fill="#3C096C"/>
<path d="M40.3972 14.5956C40.5323 14.5941 40.5323 14.5941 40.6703 14.5925C40.862 14.5908 41.0538 14.5895 41.2456 14.5885C41.4389 14.587 41.6322 14.5845 41.8255 14.5808C43.9661 14.5395 45.7463 14.9707 47.3347 16.4642C48.7917 17.8992 49.4103 19.5187 49.4374 21.5649C49.4383 21.7528 49.4384 21.9407 49.4378 22.1287C49.4377 22.4162 49.4429 22.7034 49.4484 22.9908C49.4491 23.1758 49.4494 23.3608 49.4494 23.5458C49.4514 23.6306 49.4535 23.7153 49.4556 23.8027C49.4456 24.4964 49.2216 24.7794 48.7502 25.2504C48.3466 25.4522 47.9364 25.4498 47.5002 25.3754C47.122 25.1584 46.8229 24.8959 46.6252 24.5004C46.6103 24.2428 46.6028 23.9849 46.5988 23.7269C46.5953 23.5698 46.5917 23.4127 46.5881 23.2509C46.5813 22.9211 46.5761 22.5914 46.5715 22.2616C46.538 20.8913 46.4039 19.6643 45.4015 18.6488C44.4654 17.7813 43.5712 17.4881 42.2975 17.4828C42.0603 17.4792 42.0603 17.4792 41.8183 17.4755C41.4869 17.4712 41.1555 17.469 40.8242 17.4686C39.4743 17.4425 39.4743 17.4425 39.0192 17.0726C38.647 16.6268 38.576 16.3508 38.5803 15.7636C38.6597 15.2984 38.9177 15.075 39.2502 14.7504C39.6183 14.5663 39.9932 14.5999 40.3972 14.5956Z" fill="#3C096C"/>
<path d="M22.1287 14.5627C22.4162 14.5629 22.7034 14.5576 22.9908 14.5521C23.1758 14.5515 23.3608 14.5511 23.5458 14.5511C23.6306 14.5491 23.7153 14.547 23.8027 14.5449C24.4964 14.5549 24.7794 14.7789 25.2504 15.2504C25.4522 15.6539 25.4498 16.0641 25.3754 16.5004C25.1584 16.8785 24.8959 17.1776 24.5004 17.3754C24.2428 17.3902 23.9849 17.3977 23.7269 17.4017C23.4913 17.407 23.4913 17.407 23.2509 17.4125C22.9211 17.4192 22.5914 17.4244 22.2616 17.4291C20.8913 17.4625 19.6643 17.5966 18.6488 18.599C17.7813 19.5351 17.4881 20.4294 17.4828 21.703C17.4804 21.8611 17.478 22.0193 17.4755 22.1822C17.4712 22.5136 17.469 22.845 17.4686 23.1764C17.4425 24.5263 17.4425 24.5263 17.0726 24.9813C16.6268 25.3535 16.3508 25.4246 15.7636 25.4203C15.2984 25.3409 15.075 25.0829 14.7504 24.7504C14.5663 24.3822 14.5999 24.0073 14.5956 23.6034C14.5946 23.5133 14.5936 23.4231 14.5925 23.3303C14.5908 23.1385 14.5895 22.9467 14.5885 22.755C14.587 22.5616 14.5845 22.3683 14.5808 22.175C14.5395 20.0345 14.9707 18.2542 16.4642 16.6659C18.0737 15.0317 19.8729 14.5559 22.1287 14.5627Z" fill="#3C096C"/>
<path d="M16.4998 38.6245C16.8779 38.8415 17.177 39.104 17.3748 39.4995C17.3897 39.7571 17.3972 40.015 17.4012 40.273C17.4047 40.4301 17.4083 40.5872 17.4119 40.749C17.4187 41.0788 17.4239 41.4085 17.4285 41.7383C17.462 43.1086 17.5961 44.3356 18.5984 45.3511C19.5346 46.2186 20.4288 46.5118 21.7024 46.5171C21.8606 46.5195 22.0187 46.5219 22.1817 46.5244C22.513 46.5287 22.8444 46.5309 23.1758 46.5313C24.5257 46.5574 24.5257 46.5574 24.9808 46.9273C25.353 47.3731 25.424 47.6491 25.4197 48.2363C25.3403 48.7015 25.0823 48.9249 24.7498 49.2495C24.3817 49.4336 24.0067 49.4 23.6028 49.4043C23.4676 49.4058 23.4676 49.4058 23.3297 49.4074C23.138 49.4091 22.9462 49.4104 22.7544 49.4114C22.5611 49.4128 22.3677 49.4154 22.1744 49.4191C20.1362 49.4584 18.2389 49.0772 16.6964 47.6382C16.0755 47.0285 15.5978 46.421 15.2498 45.6245C15.2026 45.517 15.1554 45.4096 15.1067 45.2988C14.6351 44.1705 14.5904 43.1353 14.581 41.9278C14.579 41.731 14.5755 41.5343 14.5708 41.3376C14.5639 41.0518 14.5612 40.7663 14.5594 40.4805C14.5565 40.3933 14.5537 40.3062 14.5508 40.2164C14.5538 39.5101 14.7683 39.2272 15.2498 38.7495C15.6534 38.5477 16.0635 38.5501 16.4998 38.6245Z" fill="#3C096C"/>
<path d="M48.4995 38.6253C48.8777 38.8423 49.1768 39.1048 49.3745 39.5003C49.3914 39.8005 49.4011 40.0969 49.4043 40.3973C49.4053 40.4874 49.4063 40.5775 49.4074 40.6704C49.4091 40.8621 49.4104 41.0539 49.4114 41.2457C49.4128 41.439 49.4154 41.6323 49.4191 41.8256C49.4604 43.9685 49.0025 45.84 47.5151 47.4612C45.8916 49.0094 43.9969 49.423 41.8185 49.4285C41.5378 49.43 41.2574 49.4362 40.9768 49.4424C40.7964 49.4436 40.616 49.4445 40.4356 49.4451C40.193 49.4476 40.193 49.4476 39.9455 49.4502C39.3617 49.3521 39.1643 49.1644 38.7495 48.7503C38.5477 48.3467 38.5501 47.9365 38.6245 47.5003C38.8415 47.1222 39.104 46.823 39.4995 46.6253C39.7571 46.6104 40.015 46.6029 40.273 46.5989C40.5086 46.5936 40.5086 46.5936 40.749 46.5882C41.0788 46.5814 41.4085 46.5762 41.7383 46.5716C43.1086 46.5381 44.3356 46.404 45.3511 45.4017C46.2186 44.4655 46.5118 43.5713 46.5171 42.2977C46.5195 42.1395 46.5219 41.9813 46.5244 41.8184C46.5287 41.487 46.5309 41.1556 46.5313 40.8243C46.5574 39.4744 46.5574 39.4744 46.9273 39.0193C47.4263 38.6027 47.8578 38.5157 48.4995 38.6253Z" fill="#3C096C"/>
</svg>
