<svg width="12" height="12" viewBox="0 0 12 12" fill="none" xmlns="http://www.w3.org/2000/svg">
<path d="M11.175 9.37461C11.625 9.82461 11.625 10.5746 11.175 11.0996C10.95 11.3246 10.65 11.4746 10.35 11.4746C10.05 11.4746 9.75 11.3246 9.525 11.0996L6 7.64961L2.55 11.0996C2.325 11.3246 2.025 11.4746 1.725 11.4746C1.425 11.4746 1.125 11.3246 0.9 11.0996C0.45 10.6496 0.45 9.89961 0.9 9.37461L4.35 5.92461L0.9 2.47461C0.45 2.02461 0.45 1.27461 0.9 0.749609C1.35 0.299609 2.1 0.299609 2.625 0.749609L6.075 4.19961L9.45 0.749609C9.9 0.299609 10.65 0.299609 11.175 0.749609C11.625 1.19961 11.625 1.94961 11.175 2.47461L7.725 5.92461L11.175 9.37461Z" fill="white"/>
</svg>
