<svg width="1368" height="366" viewBox="0 0 1368 366" fill="none" xmlns="http://www.w3.org/2000/svg">
<path d="M188.389 0H193.611L199.58 2.85938L208.533 7.86328L218.978 13.582L227.932 18.5859L238.377 24.3047L247.33 29.3086L252.553 32.168L261.506 37.1719L271.951 42.8906L280.904 47.8945L291.35 53.6133L300.303 58.6172L310.748 64.3359L319.701 69.3398L324.924 72.1992L333.877 77.2031L344.322 82.9219L353.275 87.9258L355.887 90.4277L357.379 92.9297L358.125 96.5039V269.496L357.379 273.07L355.141 276.287L352.156 278.789L346.187 282.006L340.965 284.865L335.369 288.082L331.266 290.227L326.416 293.086L322.312 295.23L316.344 298.447L307.391 303.451L301.795 306.668L297.691 308.812L290.603 312.744L280.158 318.463L273.816 322.037L268.594 324.896L259.641 329.9L249.195 335.619L240.242 340.623L235.02 343.482L229.424 346.699L225.32 348.844L220.471 351.703L216.367 353.848L210.398 357.064L201.445 362.068L195.477 365.285L193.611 366H188.389L182.42 363.141L176.078 359.566L170.855 356.707L161.902 351.703L151.457 345.984L142.504 340.98L137.281 338.121L131.686 334.904L127.582 332.76L120.494 328.828L110.049 323.109L103.707 319.535L98.4844 316.676L89.5312 311.672L79.0859 305.953L70.1328 300.949L64.9101 298.09L59.3144 294.873L55.2109 292.729L50.3613 289.869L46.2578 287.725L40.2891 284.508L31.3359 279.504L27.9785 277.359L25.3672 274.5L24.248 271.283L23.875 269.496V96.5039L24.6211 92.9297L26.8594 89.7129L29.8437 87.2109L33.9473 85.0664L38.7969 82.207L42.9004 80.0625L46.6309 77.918L50.7344 75.7734L57.8223 71.8418L63.0449 68.9824L71.998 63.9785L82.4434 58.2598L91.3965 53.2559L101.842 47.5371L110.795 42.5332L121.24 36.8145L130.193 31.8105L135.416 28.9512L144.369 23.9473L154.814 18.2285L163.768 13.2246L174.213 7.50586L183.166 2.50195L188.389 0Z" fill="#7B2CBF"/>
<path d="M354.018 89.3555L355.137 89.7129L351.779 96.8613L346.93 107.227L340.215 121.881L333.5 136.178L329.396 145.113L322.309 160.482L319.324 167.273L316.713 172.635L302.537 203.373L295.076 219.457L292.465 225.533L284.258 236.971L279.035 244.119L274.932 249.838L269.709 256.986L261.502 268.424L256.279 275.572L251.43 282.363L245.461 290.584L241.357 296.303L229.42 312.744L224.57 319.535L218.602 327.756L214.498 333.475L202.561 349.916L198.457 355.635L193.234 362.783L191.742 365.643H190.996V226.248H291.346L289.854 223.389L280.154 210.521L274.932 203.373L270.455 197.297L265.605 190.863L256.652 178.711L252.922 173.707L248.445 167.631L245.461 163.699L236.508 151.547L232.777 146.543L227.928 140.109L222.705 132.961L217.855 126.527L208.902 114.375L205.172 109.371L200.695 103.295L195.846 96.8613L192.115 91.8574L191.369 90.0703L304.029 89.7129L354.018 89.3555Z" fill="#C586F9"/>
<path d="M190.271 90.7852H191.764L196.24 96.8613L201.09 103.295L208.551 113.303L213.773 120.451L218.623 126.885L227.576 139.037L232.426 145.471L241.379 157.623L252.57 172.635L261.523 184.787L266.373 191.221L284.279 215.525L289.129 221.959L291.367 225.176V226.248H93.6523L91.041 225.891L90.668 225.176L94.3984 219.814L98.875 213.738L103.725 207.305L108.947 200.156L113.051 194.795L118.273 187.646L123.123 181.213L126.854 176.209L131.33 170.133L136.18 163.699L154.086 139.395L158.936 132.961L164.158 125.812L169.008 119.379L173.484 113.303L176.096 109.729L185.049 97.5762L188.406 93.2871L190.271 90.7852Z" fill="#3C096C"/>
<path d="M354.754 90.0703L355.873 90.4277L357.365 92.9297L358.111 96.5039V269.496L357.365 273.07L355.127 276.287L352.143 278.789L346.174 282.006L340.951 284.865L335.355 288.082L331.252 290.227L326.402 293.086L322.299 295.23L316.33 298.447L307.377 303.451L301.781 306.668L297.678 308.812L290.59 312.744L280.145 318.463L273.803 322.037L268.58 324.896L259.627 329.9L249.182 335.619L240.229 340.623L235.006 343.482L229.41 346.699L225.307 348.844L220.457 351.703L216.354 353.848L210.385 357.064L201.432 362.068L195.463 365.285L193.598 366H191.359L192.479 363.141L196.582 357.779L204.789 346.342L216.727 329.9L220.83 324.182L226.799 315.961L231.648 309.17L236.871 302.021L245.078 290.584L250.301 283.436L258.508 271.998L263.73 264.85L271.937 253.412L277.16 246.264L281.264 240.545L286.486 233.396L292.082 225.533L296.186 216.24L302.9 201.943L309.615 187.289L315.584 174.422L318.568 167.631L321.18 162.27L327.895 147.615L332.744 137.25L339.459 122.596L345.801 109.014L350.277 99.3633L354.008 91.1426L354.754 90.0703Z" fill="#7B2CBF"/>
<path d="M188.406 0H191.018L191.391 10.3652V76.8457L191.018 89.7129L189.525 90.4277H57.0938L27.9961 90.0703L28.3691 88.2832L33.2188 85.4238L48.8867 76.8457L57.8398 71.8418L63.0625 68.9824L72.0156 63.9785L82.4609 58.2598L91.4141 53.2559L101.859 47.5371L110.812 42.5332L121.258 36.8144L130.211 31.8105L135.434 28.9512L144.387 23.9473L154.832 18.2285L163.785 13.2246L174.23 7.50586L183.184 2.50195L188.406 0Z" fill="#3C096C"/>
<path d="M89.1582 226.605L90.6504 226.963L95.5 233.396L100.35 240.188L104.453 245.906L108.93 251.982L111.914 256.271L116.391 262.348L121.24 269.139L124.598 273.785L129.82 280.934L134.67 287.725L139.893 294.873L144.742 301.664L149.219 307.74L152.203 312.029L156.68 318.105L161.529 324.896L166.006 330.973L170.109 336.691L182.047 353.133L185.404 357.779L189.881 364.57V365.285H186.523L182.42 363.141L176.078 359.566L170.855 356.707L161.902 351.703L151.457 345.984L142.504 340.98L137.281 338.121L131.686 334.904L127.582 332.76L120.494 328.828L110.049 323.109L103.707 319.535L98.4844 316.676L89.5313 311.672L79.0859 305.953L70.1328 300.949L64.9102 298.09L59.3145 294.873L55.2109 292.729L50.3613 289.869L46.2578 287.725L40.2891 284.508L31.3359 279.504L27.9785 277.359L26.8594 276.287L27.2324 274.857L32.4551 270.926L38.7969 265.922L43.6465 261.99L48.8691 258.059L53.7188 254.127L57.4492 251.268L63.791 246.264L69.0137 242.332L73.8633 238.4L86.1738 228.75L89.1582 226.605Z" fill="#3C096C"/>
<path d="M191.742 91.5L193.607 93.2871L197.338 98.291L202.187 104.725L207.037 111.516L210.395 115.805L215.244 122.596L219.721 128.314L224.57 135.105L228.674 140.467L232.404 145.471L241.357 157.623L252.549 172.635L261.502 184.787L266.352 191.221L284.258 215.525L289.107 221.959L291.346 225.176V226.248H190.996V92.2148H191.742V91.5Z" fill="#7B2CBF"/>
<path d="M354.785 90.0703L355.904 90.4277L357.396 92.9297L358.143 96.5039V269.496L357.396 273.07L356.277 273.428L355.531 275.215L353.666 274.857L348.816 270.926L345.086 268.066L339.117 263.42L330.91 256.986L324.568 251.982L320.465 248.766L308.527 239.473L304.424 236.256L299.574 232.324L294.352 228.393L292.113 226.605L292.486 224.461L299.574 209.092L307.035 193.008L313.75 178.354L318.6 167.631L321.211 162.27L327.926 147.615L332.775 137.25L339.49 122.596L345.832 109.014L350.309 99.3633L354.039 91.1426L354.785 90.0703Z" fill="#3C096C"/>
<path d="M26.1133 90.4277L27.6055 91.8574L32.082 101.508L39.1699 116.877L44.0195 127.242L54.4649 149.76L61.1797 164.057L73.1172 189.791L82.8164 210.521L89.9043 225.891L88.0391 227.678L83.1895 231.609L77.9668 235.541L72.7442 239.83L69.0137 242.689L64.9102 245.906L58.9414 250.553L52.5996 255.557L48.4961 258.773L42.5273 263.42L37.6777 267.352L33.9473 270.211L27.9785 274.857L26.4863 275.93L24.6211 273.07L23.875 269.496V96.5039L24.6211 92.9297L26.1133 90.4277Z" fill="#C586F9"/>
<path d="M422 273.334V92.6679H448.676L516.577 186.76H503.239L569.928 92.6679H596.604V273.334H568.23V126.376L578.901 129.286L510.757 222.408H507.847L441.158 129.286L450.616 126.376V273.334H422Z" fill="#7B2CBF"/>
<path d="M678.091 276.244C668.229 276.244 659.58 274.062 652.143 269.697C644.706 265.17 638.886 258.945 634.683 251.024C630.641 242.94 628.62 233.644 628.62 223.136V142.139H656.023V220.71C656.023 226.692 657.236 231.947 659.661 236.473C662.086 241 665.481 244.557 669.846 247.144C674.211 249.569 679.223 250.781 684.881 250.781C690.701 250.781 695.794 249.488 700.159 246.901C704.524 244.314 707.919 240.677 710.344 235.988C712.931 231.3 714.224 225.803 714.224 219.498V142.139H741.385V273.334H715.437V247.629L718.347 251.024C715.275 259.107 710.182 265.331 703.069 269.697C695.956 274.062 687.629 276.244 678.091 276.244Z" fill="#7B2CBF"/>
<path d="M773.38 273.334V89.7578H800.783V273.334H773.38Z" fill="#7B2CBF"/>
<path d="M889.569 274.789C875.827 274.789 865.156 270.909 857.558 263.149C849.959 255.389 846.16 244.476 846.16 230.411V166.874H823.122V142.139H826.76C832.903 142.139 837.672 140.361 841.068 136.804C844.463 133.247 846.16 128.397 846.16 122.253V112.068H873.563V142.139H903.391V166.874H873.563V229.198C873.563 233.725 874.291 237.605 875.746 240.838C877.201 243.91 879.545 246.335 882.778 248.114C886.012 249.73 890.215 250.539 895.389 250.539C896.682 250.539 898.137 250.458 899.754 250.296C901.37 250.134 902.906 249.973 904.361 249.811V273.334C902.098 273.657 899.592 273.981 896.844 274.304C894.095 274.627 891.67 274.789 889.569 274.789Z" fill="#7B2CBF"/>
<path d="M931.103 273.334V142.139H958.506V273.334H931.103ZM931.103 124.194V92.6679H958.506V124.194H931.103Z" fill="#7B2CBF"/>
<path d="M1056.51 276.244C1045.19 276.244 1034.68 274.142 1024.98 269.939C1015.28 265.574 1007.04 259.673 1000.25 252.236C993.455 244.799 988.444 236.231 985.21 226.531L1009.46 216.345C1013.83 227.501 1020.21 236.069 1028.62 242.051C1037.03 248.033 1046.73 251.024 1057.72 251.024C1064.19 251.024 1069.84 250.054 1074.69 248.114C1079.54 246.012 1083.26 243.102 1085.85 239.383C1088.6 235.665 1089.97 231.381 1089.97 226.531C1089.97 219.902 1088.11 214.648 1084.39 210.768C1080.68 206.888 1075.18 203.816 1067.9 201.553L1033.95 190.882C1020.37 186.679 1010.03 180.293 1002.91 171.724C995.8 162.994 992.243 152.809 992.243 141.169C992.243 130.984 994.749 122.092 999.761 114.493C1004.77 106.733 1011.64 100.671 1020.37 96.3054C1029.27 91.9404 1039.37 89.7578 1050.69 89.7578C1061.52 89.7578 1071.38 91.6979 1080.27 95.5779C1089.16 99.2963 1096.76 104.47 1103.07 111.098C1109.53 117.727 1114.22 125.406 1117.13 134.136L1093.37 144.564C1089.81 135.025 1084.23 127.669 1076.63 122.496C1069.2 117.323 1060.55 114.736 1050.69 114.736C1044.7 114.736 1039.45 115.787 1034.92 117.888C1030.4 119.828 1026.84 122.738 1024.25 126.619C1021.83 130.337 1020.62 134.702 1020.62 139.714C1020.62 145.534 1022.48 150.707 1026.19 155.234C1029.91 159.761 1035.57 163.156 1043.17 165.419L1074.69 175.362C1089.08 179.727 1099.92 186.032 1107.19 194.277C1114.47 202.361 1118.1 212.465 1118.1 224.591C1118.1 234.614 1115.44 243.506 1110.1 251.266C1104.93 259.026 1097.73 265.17 1088.52 269.697C1079.3 274.062 1068.63 276.244 1056.51 276.244Z" fill="#7B2CBF"/>
<path d="M1209.15 276.244C1196.06 276.244 1184.42 273.253 1174.23 267.271C1164.21 261.128 1156.37 252.883 1150.71 242.536C1145.05 232.027 1142.22 220.306 1142.22 207.373C1142.22 194.116 1145.05 182.395 1150.71 172.21C1156.53 162.024 1164.29 154.022 1173.99 148.202C1183.69 142.22 1194.68 139.229 1206.97 139.229C1216.83 139.229 1225.64 140.926 1233.4 144.321C1241.16 147.717 1247.71 152.405 1253.05 158.387C1258.38 164.207 1262.42 170.916 1265.17 178.515C1268.08 186.113 1269.54 194.197 1269.54 202.765C1269.54 204.867 1269.46 207.049 1269.3 209.313C1269.13 211.576 1268.81 213.678 1268.33 215.618H1163.81V193.792H1252.8L1239.71 203.735C1241.33 195.813 1240.76 188.781 1238.01 182.637C1235.43 176.332 1231.38 171.401 1225.89 167.844C1220.55 164.126 1214.25 162.267 1206.97 162.267C1199.7 162.267 1193.23 164.126 1187.57 167.844C1181.91 171.401 1177.55 176.575 1174.48 183.365C1171.4 189.993 1170.19 198.077 1170.84 207.615C1170.03 216.507 1171.24 224.267 1174.48 230.896C1177.87 237.524 1182.56 242.698 1188.54 246.416C1194.68 250.134 1201.64 251.994 1209.4 251.994C1217.32 251.994 1224.03 250.215 1229.52 246.659C1235.18 243.102 1239.63 238.494 1242.86 232.836L1265.17 243.748C1262.59 249.892 1258.54 255.47 1253.05 260.481C1247.71 265.331 1241.25 269.212 1233.65 272.122C1226.21 274.87 1218.05 276.244 1209.15 276.244Z" fill="#7B2CBF"/>
<path d="M1353.03 274.789C1339.29 274.789 1328.62 270.909 1321.02 263.149C1313.42 255.389 1309.62 244.476 1309.62 230.411V166.874H1286.58V142.139H1290.22C1296.36 142.139 1301.13 140.361 1304.53 136.804C1307.92 133.247 1309.62 128.397 1309.62 122.253V112.068H1337.02V142.139H1366.85V166.874H1337.02V229.198C1337.02 233.725 1337.75 237.605 1339.2 240.838C1340.66 243.91 1343 246.335 1346.24 248.114C1349.47 249.73 1353.67 250.539 1358.85 250.539C1360.14 250.539 1361.6 250.458 1363.21 250.296C1364.83 250.134 1366.37 249.973 1367.82 249.811V273.334C1365.56 273.657 1363.05 273.981 1360.3 274.304C1357.55 274.627 1355.13 274.789 1353.03 274.789Z" fill="#7B2CBF"/>
</svg>
